<svg width="188" height="19" viewBox="0 0 188 19" fill="none" xmlns="http://www.w3.org/2000/svg">
<path d="M18.1641 20.4297H9.47266L6.79688 28.3984L0 26.5234L10.2344 0.390625L15.8789 0.761719L26.4844 26.1133L21.1914 28.0469L18.1641 20.4297ZM16.6406 17.0312L13.2422 9.08203L10.6055 17.0312H16.6406ZM32.4414 20.4688C33.9909 21.8229 35.3385 22.6953 36.4844 23.0859C37.6302 23.4766 38.5872 23.3659 39.3555 22.7539C39.668 22.4414 39.7526 22.0898 39.6094 21.6992C39.4661 21.3086 39.1797 20.8984 38.75 20.4688C38.3203 20.0391 37.7865 19.6029 37.1484 19.1602C36.5234 18.7044 35.8854 18.2617 35.2344 17.832C34.5964 17.3893 33.9909 16.9661 33.418 16.5625C32.8451 16.1589 32.3958 15.7943 32.0703 15.4688C32.0052 15.4167 31.849 15.2865 31.6016 15.0781C31.3542 14.8698 31.0677 14.5898 30.7422 14.2383C30.4297 13.8867 30.1042 13.4701 29.7656 12.9883C29.4271 12.5065 29.1406 11.9661 28.9062 11.3672C28.6719 10.7552 28.5156 10.0911 28.4375 9.375C28.3594 8.64583 28.4115 7.86458 28.5938 7.03125C28.8932 5.97656 29.388 5.02604 30.0781 4.17969C30.7812 3.33333 31.6211 2.61719 32.5977 2.03125C33.5872 1.43229 34.6875 0.970052 35.8984 0.644531C37.1224 0.31901 38.3984 0.15625 39.7266 0.15625C40.8594 0.15625 41.9141 0.208333 42.8906 0.3125C43.8672 0.416667 44.7852 0.592448 45.6445 0.839844C46.5169 1.07422 47.3503 1.38672 48.1445 1.77734C48.9388 2.16797 49.7135 2.65625 50.4688 3.24219L46.6406 9.76562C46.0677 9.17969 45.4102 8.65885 44.668 8.20312C43.9388 7.7474 43.1836 7.38281 42.4023 7.10938C41.6341 6.82292 40.8724 6.64714 40.1172 6.58203C39.375 6.51693 38.6979 6.58203 38.0859 6.77734C37.487 6.95964 36.9857 7.29818 36.582 7.79297C36.1914 8.27474 35.9701 8.93229 35.918 9.76562C35.918 10.4818 36.0677 11.1198 36.3672 11.6797C36.6667 12.2266 37.0573 12.7344 37.5391 13.2031C38.0208 13.6719 38.5677 14.1146 39.1797 14.5312C39.7917 14.9479 40.4102 15.3711 41.0352 15.8008C41.6732 16.2305 42.2852 16.6927 42.8711 17.1875C43.457 17.6693 43.9648 18.2161 44.3945 18.8281C44.8372 19.4401 45.1693 20.1302 45.3906 20.8984C45.625 21.6667 45.6966 22.5521 45.6055 23.5547C45.5143 24.5182 45.2409 25.3385 44.7852 26.0156C44.3294 26.6797 43.763 27.2135 43.0859 27.6172C42.4089 28.0208 41.6471 28.3008 40.8008 28.457C39.9674 28.6133 39.1146 28.6589 38.2422 28.5938C37.7083 28.5547 37.181 28.4831 36.6602 28.3789C36.1393 28.2747 35.6315 28.1445 35.1367 27.9883C34.6419 27.832 34.1667 27.6628 33.7109 27.4805C33.2552 27.2982 32.832 27.1159 32.4414 26.9336C31.5169 26.5039 30.638 26.0156 29.8047 25.4688C30.2995 24.5443 30.7422 23.7174 31.1328 22.9883C31.3021 22.6758 31.4648 22.3698 31.6211 22.0703C31.7773 21.7708 31.9141 21.5039 32.0312 21.2695C32.1615 21.0352 32.2591 20.8464 32.3242 20.7031C32.4023 20.5599 32.4414 20.4818 32.4414 20.4688ZM72.1094 14.3164C71.6927 14.7461 71.2109 15.1237 70.6641 15.4492C70.1302 15.7617 69.5703 16.0352 68.9844 16.2695C68.3984 16.4909 67.7995 16.6732 67.1875 16.8164C66.5885 16.9466 66.0156 17.0443 65.4688 17.1094L72.8711 24.5898L69.0625 28.0078L60.0977 17.832L60.3125 28.0078L53.0664 28.3984L52.3047 0.605469L59.9414 0.195312C60.8789 0.195312 62.0117 0.227865 63.3398 0.292969C64.681 0.358073 66.2174 0.579427 67.9492 0.957031C68.7174 1.1263 69.4596 1.4388 70.1758 1.89453C70.8919 2.35026 71.5299 2.90365 72.0898 3.55469C72.6628 4.19271 73.1315 4.91536 73.4961 5.72266C73.8607 6.51693 74.0755 7.34375 74.1406 8.20312C74.1797 8.77604 74.1862 9.31641 74.1602 9.82422C74.1471 10.332 74.069 10.8333 73.9258 11.3281C73.7956 11.8229 73.5872 12.3177 73.3008 12.8125C73.0143 13.2943 72.6172 13.7956 72.1094 14.3164ZM67.5391 10.0781C67.4479 9.32292 67.2135 8.70443 66.8359 8.22266C66.4714 7.72786 65.9635 7.35026 65.3125 7.08984C64.6745 6.81641 63.9062 6.65365 63.0078 6.60156C62.1094 6.53646 61.0872 6.54948 59.9414 6.64062V13.9258C60.1237 13.9258 60.4492 13.9453 60.918 13.9844C61.3867 14.0234 61.9141 14.043 62.5 14.043C63.0859 14.0299 63.6914 13.9714 64.3164 13.8672C64.9414 13.763 65.5013 13.5677 65.9961 13.2812C66.5039 12.9948 66.901 12.5977 67.1875 12.0898C67.487 11.582 67.6042 10.9115 67.5391 10.0781ZM94.4922 20.4297H85.8008L83.125 28.3984L76.3281 26.5234L86.5625 0.390625L92.207 0.761719L102.812 26.1133L97.5195 28.0469L94.4922 20.4297ZM92.9688 17.0312L89.5703 9.08203L86.9336 17.0312H92.9688ZM120.293 6.40625L120.645 28.125L113.438 28.3984L113.047 6.64062L104.922 7.03125L104.727 1.11328L129.336 0.351562L129.531 6.03516L120.293 6.40625ZM149.844 14.7266L150.605 28.2422L143.633 28.6328L142.832 15.4688L131.641 4.27734L136.68 0L146.719 10.8398L154.844 0.390625L159.121 3.51562L149.844 14.7266ZM179.297 20.4297H170.605L167.93 28.3984L161.133 26.5234L171.367 0.390625L177.012 0.761719L187.617 26.1133L182.324 28.0469L179.297 20.4297ZM177.773 17.0312L174.375 9.08203L171.738 17.0312H177.773Z" fill="#21212D"/>
</svg>
