<svg width="28" height="38" viewBox="0 0 28 38" fill="none" xmlns="http://www.w3.org/2000/svg">
<g filter="url(#filter0_d_66_10)">
<path d="M9.97664 24.617V29.3963L17.5786 27.5219V24.617C21.0486 23.9656 21.566 22.017 21.391 21.1242C23.9113 21.1242 23.6789 17.7608 23.2477 16.079H4.18576C3.43698 20.4134 5.13189 21.2485 6.07294 21.1242C5.85378 23.4131 8.58409 24.4064 9.97664 24.617Z" fill="white"/>
<path d="M18.4537 12.2818C16.3763 15.7366 12.3407 15.2217 11.9856 14.4582C10.3297 14.6773 10.0527 14.2299 10.1212 13.9788C8.08795 14.3745 7.59485 13.0124 7.60246 12.2818L8.33298 12.0003C5.31958 9.81634 6.95564 7.99005 6.90238 8.15746C6.86238 8.28315 9.24552 9.50892 10.6626 10.2169C10.2892 10.0198 9.81657 9.72392 9.76358 9.51196C9.67987 9.17714 9.88533 9.1467 10.456 8.70535C10.9126 8.35226 10.7934 8.08136 10.6767 7.99005C9.52616 7.50303 9.203 5.48903 9.18525 4.54291C9.18525 4.36637 9.52007 4.10917 9.68748 4.00263C9.20656 4.77576 9.77626 5.33431 10.1212 5.51694L11.3996 4.54291C9.01327 1.74868 11.1663 0.35004 12.5411 0C10.867 1.81412 12.6654 3.42431 13.7738 4.00263C13.9017 4.01481 14.304 3.30255 14.4891 2.9449C13.229 1.87348 13.68 1.1947 14.063 0.989244C13.7221 1.65889 14.692 2.63291 15.2196 3.03622C15.7493 3.26146 15.1461 4.39833 14.7783 4.93861C14.6489 6.61271 15.8512 7.01602 16.0034 6.97797C16.1252 6.94753 16.0542 6.25506 16.0034 5.91263C15.1572 4.12895 16.5894 3.66781 17.4112 3.6602C16.5772 4.08025 16.6883 5.17451 16.8481 5.66913C17.5664 6.7162 17.6953 7.38382 17.6699 7.58674C19.5693 6.35703 20.3941 7.58674 20.5692 8.3553C20.526 8.40857 20.6163 8.57141 21.3225 8.79666C22.0287 9.0219 21.9008 9.74278 21.7486 10.0751C21.2388 9.9939 20.1978 9.86352 20.1126 9.99136C20.0274 10.1192 19.7372 10.1867 19.6028 10.2044C19.2618 10.1679 18.6947 11.5742 18.4537 12.2818Z" fill="white"/>
</g>
<defs>
<filter id="filter0_d_66_10" x="0" y="0" width="27.5182" height="37.3963" filterUnits="userSpaceOnUse" color-interpolation-filters="sRGB">
<feFlood flood-opacity="0" result="BackgroundImageFix"/>
<feColorMatrix in="SourceAlpha" type="matrix" values="0 0 0 0 0 0 0 0 0 0 0 0 0 0 0 0 0 0 127 0" result="hardAlpha"/>
<feOffset dy="4"/>
<feGaussianBlur stdDeviation="2"/>
<feComposite in2="hardAlpha" operator="out"/>
<feColorMatrix type="matrix" values="0 0 0 0 0 0 0 0 0 0 0 0 0 0 0 0 0 0 0.25 0"/>
<feBlend mode="normal" in2="BackgroundImageFix" result="effect1_dropShadow_66_10"/>
<feBlend mode="normal" in="SourceGraphic" in2="effect1_dropShadow_66_10" result="shape"/>
</filter>
</defs>
</svg>
