<svg width="193" height="20" viewBox="0 0 193 20" fill="none" xmlns="http://www.w3.org/2000/svg">
<path d="M10.32 3.24003H8.08V16.2H10.44C14.92 16.2 17 13.72 17 9.48003C17 5.96003 14.88 3.24003 10.32 3.24003ZM8.08 17.68V25.8C8.08 28.04 8.56 28.28 11.44 28.64V29.84H1.10269e-06V28.64C2.88 28.28 3.36 28.04 3.36 25.8V5.80003C3.36 3.56003 2.88 3.32002 1.10269e-06 2.96002V1.76003H11.6C18.36 1.76003 21.92 4.92003 21.92 9.48003C21.92 14 18.08 16.32 15.08 16.96L21.44 25.28C23.28 27.76 24.48 28.56 26.64 28.64V29.84H19.92C18.76 29.04 17.8 27.8 16.6 26.12L10.52 17.68H8.08ZM36.2322 8.48003C41.3522 8.48003 44.0322 11.96 44.0322 16.6V17.44H30.8722C30.6322 23.56 33.7122 27.04 37.7522 27.04C40.5522 27.04 42.3122 25.8 43.7522 23.64L44.2722 23.92C43.3122 27.64 40.4722 30.24 36.1122 30.24C30.3522 30.24 26.8322 25.8 26.8322 19.92C26.8322 13.24 30.9122 8.48003 36.2322 8.48003ZM35.8722 9.84003C32.9922 9.84003 31.3122 12.56 30.9922 16.16H39.8722C39.8722 12.48 38.7522 9.84003 35.8722 9.84003ZM61.2947 26.8V15.12C61.2947 12.44 60.2147 11.24 57.9347 11.24C56.0547 11.24 54.2947 12.2 52.8947 13.32V26.8C52.8947 28.28 53.5347 28.56 55.4947 28.68V29.84H45.7747V28.68C47.7747 28.56 48.4147 28.28 48.4147 26.8V12.52L45.8947 11.12V10.56L52.3747 8.48003H53.0547L52.8947 12.32C54.6947 10.28 57.0147 8.48003 60.2147 8.48003C63.9347 8.48003 65.7747 10.6 65.7747 14.92V26.8C65.7747 28.28 66.4147 28.56 68.4147 28.68V29.84H58.6547V28.68C60.6547 28.56 61.2947 28.28 61.2947 26.8ZM77.5609 27.52C78.9609 27.52 80.0009 26.88 81.4009 25.76V18.24L77.2009 19.96C75.3209 20.68 74.2409 21.72 74.2409 23.88C74.2409 26.04 75.3209 27.52 77.5609 27.52ZM85.8809 14.8V25.4C85.8809 27 86.2009 27.84 87.3209 27.84C87.9609 27.84 88.5209 27.64 89.0409 27.4L89.2809 28.12C88.2409 29.52 86.8009 30.24 85.1209 30.24C83.0409 30.24 81.8009 28.88 81.4809 26.68C80.1209 28.32 77.9609 30.2 75.1609 30.2C71.9609 30.2 69.9209 28.2 69.9209 25.12C69.9209 21.72 72.4009 20.32 75.5209 19.16L81.4009 17V13.96C81.4009 11.44 80.4809 9.60003 78.0809 9.60003C75.9609 9.60003 75.0809 11.08 75.0809 13.08C75.0809 13.8 75.2009 14.48 75.4009 15.32L72.7609 15.68C71.7209 15.36 71.0809 14.56 71.0809 13.36C71.0809 10.2 74.3609 8.48003 78.5609 8.48003C83.3609 8.48003 85.8809 10.4 85.8809 14.8ZM97.7153 30.24C94.8353 30.24 92.3153 29.44 90.7553 28.28L90.5153 22.76H91.7953C92.7553 26.32 94.7153 29 97.7953 29C100.075 29 101.835 27.84 101.835 25.48C101.835 23.24 100.355 22.32 96.9553 21.04C92.8353 19.52 90.7953 17.96 90.7953 14.44C90.7953 10.72 93.5553 8.48003 97.7553 8.48003C100.275 8.48003 102.355 9.12003 104.035 10.16V15H102.875C102.155 12.04 100.515 9.72003 97.6353 9.72003C95.4353 9.72003 94.2353 11 94.2353 12.84C94.2353 14.84 95.4753 15.8 98.8353 17.04C102.915 18.52 105.355 20.16 105.355 23.8C105.355 27.84 102.315 30.24 97.7153 30.24ZM111.651 18.08C111.651 23.36 114.131 26.92 118.211 26.92C120.811 26.92 122.611 25.76 123.931 23.76L124.531 24.04C123.291 28.08 120.531 30.24 116.691 30.24C111.411 30.24 107.691 26.2 107.691 20.08C107.691 13.44 111.571 8.48003 117.691 8.48003C121.491 8.48003 123.971 10.08 123.971 12.88C123.971 14.04 123.371 15 122.571 15.44H119.931C120.011 14.92 120.091 14.36 120.091 13.64C120.091 11.64 119.411 9.84003 116.971 9.84003C113.651 9.84003 111.651 13.44 111.651 18.08ZM135.334 8.48003C140.454 8.48003 143.134 11.96 143.134 16.6V17.44H129.974C129.734 23.56 132.814 27.04 136.854 27.04C139.654 27.04 141.414 25.8 142.854 23.64L143.374 23.92C142.414 27.64 139.574 30.24 135.214 30.24C129.454 30.24 125.934 25.8 125.934 19.92C125.934 13.24 130.014 8.48003 135.334 8.48003ZM134.974 9.84003C132.094 9.84003 130.414 12.56 130.094 16.16H138.974C138.974 12.48 137.854 9.84003 134.974 9.84003ZM160.396 26.8V15.12C160.396 12.44 159.316 11.24 157.036 11.24C155.156 11.24 153.396 12.2 151.996 13.32V26.8C151.996 28.28 152.636 28.56 154.596 28.68V29.84H144.876V28.68C146.876 28.56 147.516 28.28 147.516 26.8V12.52L144.996 11.12V10.56L151.476 8.48003H152.156L151.996 12.32C153.796 10.28 156.116 8.48003 159.316 8.48003C163.036 8.48003 164.876 10.6 164.876 14.92V26.8C164.876 28.28 165.516 28.56 167.516 28.68V29.84H157.756V28.68C159.756 28.56 160.396 28.28 160.396 26.8ZM175.023 3.80003V8.88002H180.503V10.52H175.023V23.76C175.023 26.48 176.023 27.6 178.103 27.6C179.303 27.6 180.143 27.24 181.183 26.48L181.623 27.08C180.463 28.8 178.583 30.24 175.943 30.24C172.903 30.24 170.583 28.6 170.583 24.24V10.52H167.983V9.80002C170.463 8.56003 172.543 6.36003 174.063 3.80003H175.023ZM189.574 8.48003V26.8C189.574 28.28 190.214 28.56 192.214 28.68V29.84H182.454V28.68C184.454 28.56 185.094 28.28 185.094 26.8V12.52L182.574 11.12V10.56L188.934 8.48003H189.574ZM187.214 5.64003C185.574 5.64003 184.374 4.36003 184.374 2.84003C184.374 1.28003 185.574 2.47955e-05 187.214 2.47955e-05C188.854 2.47955e-05 190.094 1.28003 190.094 2.84003C190.094 4.36003 188.854 5.64003 187.214 5.64003Z" fill="#21212D"/>
</svg>
