<svg width="82" height="28" viewBox="0 0 82 28" fill="none" xmlns="http://www.w3.org/2000/svg">
<path d="M16.8284 3.51401L9.1791 33.4815C22.6418 26.2893 34.5746 32.0386 38.8582 35.8123L46.5075 5.84481C36.4716 -3.4784 22.5398 0.406271 16.8284 3.51401Z" fill="#21212D"/>
<path d="M0 68.7764L7.34328 38.476C23.2537 29.6856 34.1667 36.1452 37.6343 40.4739L29.3731 70.1083C18.8478 61.3179 5.40547 65.5577 0 68.7764Z" fill="#21212D"/>
<path d="M32.7388 72.7721L41 42.4717C50.3015 51.6661 65.8856 48.5225 72.5149 45.8014L65.1716 74.7699C50.4851 83.294 37.4304 76.9897 32.7388 72.7721Z" fill="#21212D"/>
<path d="M74.0448 40.4739C60.8269 49.5307 46.5075 42.9156 41 38.476L50.1791 8.84155C61.194 17.3656 75.9826 13.7251 82 10.8394L74.0448 40.4739Z" fill="#21212D"/>
</svg>
