<svg width="427" height="98" viewBox="0 0 427 98" fill="none" xmlns="http://www.w3.org/2000/svg">
<path d="M95.0393 1C82.3881 15.7602 78.9044 21.8142 75.9512 27.3697C73.6429 31.7118 73.4301 36.6071 73.7542 39.4288C73.8852 40.5689 74.7267 40.9602 75.8169 41.2893C78.3622 42.0575 82.1393 42.055 91.0318 40.6572C97.8241 39.5895 109 36.4637 116.409 34.2708C127.222 31.0708 132.561 27.3013 136.807 23.5118C141.281 19.5199 143.706 14.9196 144.907 12.6355C144.975 12.5066 143.077 15.9623 136.784 24.2808C132.362 30.1273 124.873 38.8358 119.684 44.6682C114.494 50.5006 111.685 53.0812 104.944 60.3245C98.2021 67.5677 87.6136 79.3955 81.7267 85.166C75.8399 90.9365 74.9755 90.2913 74.3141 89.3138C70.3298 83.425 71.4656 74.4363 71.7898 71.7254C72.0606 69.4601 74.7267 68.1282 77.3394 66.9356C79.8766 65.7776 85.3938 65.0849 98.2054 64.5407C106.904 64.1713 120.093 64.6418 128.18 64.5375C138.873 64.3996 147.15 61.6245 156.851 58.0469C163.509 55.5916 169.218 50.5592 174.997 44.9191C178.712 41.2925 179.944 38.3731 180.599 36.2063C181.229 34.1205 180.605 31.8564 180.062 29.9047C179.811 29.0035 179.302 28.383 178.431 27.7281C173.699 24.1698 163.626 27.7053 150.853 34.424C146.661 36.6294 145.467 39.8719 144.377 42.0387C142.095 46.5733 143.712 51.1718 144.364 52.3644C145.982 55.3266 158.033 55.0883 170.197 52.928C179.922 51.2007 183.644 44.0295 185.935 40.3444C186.948 38.717 186.715 37.0893 185.958 36.8514C179.241 34.7388 175.596 48.5456 174.384 53.0095C173.9 54.7931 174.489 56.3851 175.465 57.4702C176.905 59.0712 182.314 58.3467 188.525 57.9166C193.388 57.5799 198.685 52.9443 205.328 46.6655C217.379 35.2757 219.875 28.8262 223.807 24.5838C225.436 22.8264 226.436 21.2082 226.875 20.6608C229.301 17.6338 223.175 29.4387 216.991 39.6992C212.918 46.4561 205.849 58.7507 201.635 65.7105C196.558 74.0951 192.85 77.0104 188.385 80.0471C176.919 87.8433 159.441 89.4051 159.209 89.5191C158.397 89.9176 162.866 88.1278 170.364 85.6385C177.861 83.1491 189.963 79.2782 198.79 75.3486C207.617 71.4191 212.803 67.5482 217.852 62.7584C228.213 52.9289 234.281 45.3264 238.305 42.0811C248.926 33.5149 252.407 25.1377 255.569 17.4285C256.23 15.8183 256.126 14.9196 255.802 14.584C251.938 10.5832 242.178 25.5157 237.153 34.4207C235.85 36.7281 235.827 39.2137 236.259 42.2505C236.454 43.6217 237.555 44.4271 240.161 44.8702C247.005 46.0337 254.135 44.4531 259.901 42.1821C273.427 36.8544 276.642 30.3315 277.077 29.0314C278.586 24.5254 260.959 46.1344 259.181 51.0578C258.911 51.8054 260.042 52.4686 261.348 52.801C269.387 54.8461 281.389 47.9461 291.126 41.9703C299.419 36.8813 301.519 29.9079 302.403 28.5818C302.93 27.7901 300.68 31.7978 292.665 42.371C284.65 52.9443 269.956 71.6537 260.117 83.8724C250.279 96.0912 245.741 101.252 253.991 92.9436C262.242 84.6349 283.419 62.6998 295.301 49.8945C307.183 37.0893 309.128 34.0786 310.994 30.6997C312.86 27.3208 314.589 23.665 315.155 22.6418C319.425 14.93 304.164 44.6356 301.97 48.4511C301.53 49.2162 301.099 49.862 300.985 49.6567C300.358 48.5338 302.173 46.1931 306.4 42.0908C315.133 33.616 322.689 28.5916 325.082 27.5098C328.003 26.1896 331.411 25.1117 334.574 25.4342C337.995 25.7831 345.981 28.8001 360.187 30.6443C368.6 31.7363 373.988 30.5466 374.43 29.5723C377.886 21.9557 350.46 30.0904 346.066 33.5703C344.457 34.8448 344.527 37.2652 344.635 39.217C344.684 40.0987 344.96 40.7386 345.395 41.1785C347.768 43.5754 356.917 40.7647 374.364 32.5341C378.565 30.5525 380.713 27.979 380.857 26.7636C381.001 25.5483 378.84 25.3332 376.863 25.545C373.079 25.9502 370.511 27.9269 369.093 29.8753C367.621 31.8993 368.101 34.8736 369.073 36.8286C369.597 37.8808 371.991 37.4933 378.935 36.0955C385.88 34.6977 397.765 31.902 404.319 30.2468C413.604 27.9021 416.545 26.2065 419.711 24.574C422.363 23.2069 424.409 22.2899 425.824 21.8566C426.585 21.6232 427.454 21.4232 369.339 26.6887C311.223 31.9542 194.101 42.7067 127.391 50.2888C60.6807 57.8709 47.9313 61.9569 37.4737 65.7822C27.0162 69.6075 19.2369 73.0482 13.1765 76.2186C7.11606 79.389 3.01031 82.1846 1.43545 83.4098C-0.139398 84.6349 0.941062 84.2048 33.3712 81.6177C65.8014 79.0306 129.549 74.2995 179.135 67.9913C228.722 61.6832 262.216 53.9414 300.648 48.9855C339.079 44.0295 381.433 42.0941 425.071 40.1" stroke="#F8F1DA" stroke-width="2" stroke-linecap="round"/>
</svg>
